<svg width="24" height="25" viewBox="0 0 24 25" fill="none" xmlns="http://www.w3.org/2000/svg">
<path d="M8.75 10.7527C8.75 9.89073 9.09241 9.06408 9.7019 8.45459C10.3114 7.8451 11.138 7.50269 12 7.50269C12.862 7.50269 13.6886 7.8451 14.2981 8.45459C14.9076 9.06408 15.25 9.89073 15.25 10.7527C15.25 11.6146 14.9076 12.4413 14.2981 13.0508C13.6886 13.6603 12.862 14.0027 12 14.0027C11.138 14.0027 10.3114 13.6603 9.7019 13.0508C9.09241 12.4413 8.75 11.6146 8.75 10.7527Z" fill="white"/>
<path fill-rule="evenodd" clip-rule="evenodd" d="M3.77404 9.62969C3.93993 7.61927 4.85568 5.74472 6.33952 4.37814C7.82335 3.01157 9.76679 2.25288 11.784 2.25269H12.216C14.2333 2.25288 16.1767 3.01157 17.6606 4.37814C19.1444 5.74472 20.0602 7.61927 20.226 9.62969C20.4114 11.8742 19.7184 14.103 18.293 15.8467L13.5 21.7087C13.3184 21.931 13.0895 22.1102 12.8301 22.2333C12.5707 22.3563 12.2872 22.4201 12 22.4201C11.7129 22.4201 11.4294 22.3563 11.17 22.2333C10.9105 22.1102 10.6817 21.931 10.5 21.7087L5.70804 15.8467C4.28234 14.1031 3.58899 11.8743 3.77404 9.62969ZM12 6.00269C10.7403 6.00269 9.53208 6.50313 8.64128 7.39393C7.75048 8.28473 7.25004 9.49291 7.25004 10.7527C7.25004 12.0125 7.75048 13.2206 8.64128 14.1114C9.53208 15.0022 10.7403 15.5027 12 15.5027C13.2598 15.5027 14.468 15.0022 15.3588 14.1114C16.2496 13.2206 16.75 12.0125 16.75 10.7527C16.75 9.49291 16.2496 8.28473 15.3588 7.39393C14.468 6.50313 13.2598 6.00269 12 6.00269Z" fill="white"/>
</svg>
