<svg width="49" height="61" viewBox="0 0 49 61" fill="none" xmlns="http://www.w3.org/2000/svg">
<g clip-path="url(#clip0_342_1911)">
<path d="M29.6664 57.0981H27.2315C27.2315 55.4621 25.8997 54.1312 24.2646 54.1312C22.6294 54.1312 21.2977 55.463 21.2977 57.0981H18.8628C18.8628 54.7317 20.3938 52.714 22.5182 51.9872C22.9364 52.3733 23.4986 52.61 24.1133 52.61C24.7663 52.61 25.3579 52.344 25.7858 51.9143C28.0259 52.5726 29.6664 54.6481 29.6664 57.0981Z" fill="white"/>
<path d="M33.9407 54.4794C33.9407 49.1052 33.9407 43.7301 33.9398 38.3559C33.9398 37.831 33.7699 37.3613 33.4434 36.9512C32.9221 36.2955 32.2219 36.0571 31.407 36.0589C28.5549 36.0642 25.7037 36.0606 22.8515 36.0606C21.3837 36.0606 19.9158 36.0731 18.447 36.058C16.7817 36.0402 15.9419 37.3462 15.9508 38.5649C15.9854 43.3805 15.965 48.1969 15.965 53.0133V55.3734C16.4721 55.7026 16.9881 56.0122 17.5147 56.3049V53.0115C17.5147 49.1043 17.5183 45.1971 17.5085 41.2898C17.5076 40.9954 17.5743 40.8931 17.8883 40.894C22.598 40.9037 27.3077 40.9029 32.0182 40.8957C32.2958 40.8949 32.3981 40.9536 32.3972 41.2596C32.3918 46.0173 32.3901 50.775 32.391 55.5327C32.9185 55.2 33.4345 54.8494 33.9407 54.4794ZM26.2757 38.709C25.8318 38.7046 25.3887 38.7073 24.9448 38.7073C24.5125 38.7073 24.0792 38.7055 23.646 38.709C23.4823 38.7099 23.356 38.6886 23.3488 38.4778C23.3417 38.258 23.4618 38.2073 23.6451 38.2073C24.5214 38.2082 25.3985 38.2073 26.2748 38.2082C26.4429 38.2082 26.5577 38.2571 26.5568 38.4608C26.5559 38.6628 26.4501 38.7108 26.2757 38.709Z" fill="white"/>
<path d="M19.1942 29.8954C20.1541 31.9798 19.3872 33.2724 17.1249 33.4023C15.7665 33.4797 15.2665 33.8987 15.0503 35.2545C14.9756 35.7206 15.0334 36.2099 15.0494 36.6876C15.077 37.5506 14.8057 38.1466 13.8191 38.1688C13.5887 38.1742 13.3592 38.2311 13.0869 38.2712C14.0335 39.739 13.9445 40.2283 12.5371 41.0156C11.2748 41.7229 10.5738 42.6855 10.4296 44.1889C10.2633 45.9263 9.42436 47.2376 8.12107 47.9298C8.01965 47.7946 7.91912 47.6576 7.8186 47.5197C3.48436 41.5583 1.31813 34.9395 1.3208 27.6642V10.1413L20.2137 3.05728C19.695 3.91755 19.0429 4.71198 18.4985 5.56157C18.3206 5.83913 18.1026 6.23323 18.1711 6.50723C19.155 10.4696 19.0794 14.4533 18.5972 18.47C18.4985 19.2866 18.253 19.8071 17.5884 20.2715C16.0467 21.3488 15.7745 22.4866 16.5662 24.2258C17.4301 26.1216 18.3232 28.0032 19.1942 29.8954Z" fill="white"/>
<path d="M47.2813 10.1413V27.6642C47.2813 34.9413 45.1151 41.561 40.7808 47.5223C38.7552 50.3095 36.4751 52.6287 33.9405 54.4791C33.4343 54.8492 32.9184 55.1997 32.3908 55.5324C29.9177 57.0928 27.2212 58.2413 24.3006 58.9753C21.8853 58.3668 19.623 57.4772 17.5146 56.3046C16.9879 56.012 16.4719 55.7024 15.9649 55.3732C13.0318 53.4801 10.4172 50.9981 8.12107 47.9297C8.01965 47.7945 7.91912 47.6575 7.8186 47.5196C3.48436 41.5583 1.31813 34.9395 1.3208 27.6642V10.1413L20.2137 3.05726L24.3006 1.52444L47.2813 10.1413Z" stroke="white" stroke-width="2.13509" stroke-miterlimit="10"/>
<path d="M23.1824 45.212C23.2456 45.2627 23.3088 45.3125 23.371 45.3615C23.299 45.3179 23.2278 45.2734 23.1558 45.228L23.1824 45.212Z" fill="#507BC9"/>
<path d="M29.7363 47.9148C30.1251 47.9549 30.5183 47.9753 30.916 47.9762C30.8982 47.9771 30.8795 47.9771 30.8608 47.9771C30.513 47.9771 30.1687 47.9629 29.828 47.9344C29.7968 47.9282 29.7666 47.9219 29.7363 47.9148Z" fill="#507BC9"/>
<path d="M24.1123 52.3051C25.4148 52.3051 26.4707 51.2492 26.4707 49.9467C26.4707 48.6442 25.4148 47.5883 24.1123 47.5883C22.8098 47.5883 21.7539 48.6442 21.7539 49.9467C21.7539 51.2492 22.8098 52.3051 24.1123 52.3051Z" fill="white"/>
</g>
<defs>
<clipPath id="clip0_342_1911">
<rect width="48.0956" height="59.6918" fill="white" transform="translate(0.253418 0.384033)"/>
</clipPath>
</defs>
</svg>
