<svg width="144" height="26" viewBox="0 0 144 26" fill="none" xmlns="http://www.w3.org/2000/svg">
<g clip-path="url(#clip0_342_1902)">
<path d="M25.5986 23.4236L17.1449 17.1552C17.9762 15.8118 18.4565 14.2315 18.4565 12.5416C18.4565 11.4839 18.2701 10.4491 17.9025 9.46558C17.692 8.90241 17.0647 8.61645 16.5017 8.827C15.9384 9.0375 15.6526 9.6647 15.8631 10.2279C16.1392 10.9667 16.2792 11.7452 16.2792 12.5416C16.2792 16.209 13.274 19.1927 9.58005 19.1927C5.8861 19.1927 2.88086 16.209 2.88086 12.5416C2.88086 8.87411 5.8861 5.89044 9.58005 5.89044C10.6025 5.89044 11.5834 6.11282 12.4955 6.55134C13.0374 6.81186 13.6878 6.58375 13.9483 6.04196C14.2089 5.50012 13.9808 4.84967 13.439 4.58914C12.2301 4.00792 10.9317 3.7132 9.58005 3.7132C4.68555 3.7132 0.703613 7.67361 0.703613 12.5416C0.703613 17.4096 4.68555 21.37 9.58005 21.37C11.9901 21.37 14.1784 20.4093 15.7796 18.8533L24.3018 25.1725C24.4968 25.3171 24.724 25.3867 24.9494 25.3867C25.2823 25.3867 25.6111 25.2345 25.8247 24.9465C26.1828 24.4635 26.0815 23.7817 25.5986 23.4236Z" fill="#5C5C5C"/>
<path d="M15.6985 8.26046C16.2997 8.26046 16.7871 7.77307 16.7871 7.17184C16.7871 6.57061 16.2997 6.08322 15.6985 6.08322C15.0973 6.08322 14.6099 6.57061 14.6099 7.17184C14.6099 7.77307 15.0973 8.26046 15.6985 8.26046Z" fill="#5C5C5C"/>
</g>
<path d="M48.9076 18.2197C48.2324 18.2197 47.6248 18.1039 47.0846 17.8724C46.5445 17.6313 46.1201 17.2937 45.8114 16.8596C45.5028 16.4256 45.3484 15.9192 45.3484 15.3405H47.1136C47.1521 15.7745 47.3209 16.1314 47.62 16.4111C47.9286 16.6908 48.3578 16.8307 48.9076 16.8307C49.4767 16.8307 49.9204 16.6957 50.2387 16.4256C50.557 16.1459 50.7162 15.789 50.7162 15.3549C50.7162 15.0173 50.6149 14.7424 50.4123 14.5302C50.2194 14.318 49.9735 14.1541 49.6745 14.0383C49.3851 13.9226 48.98 13.7972 48.4591 13.6621C47.8032 13.4885 47.2679 13.3149 46.8531 13.1413C46.448 12.958 46.1008 12.6783 45.8114 12.3021C45.5221 11.926 45.3774 11.4244 45.3774 10.7974C45.3774 10.2187 45.5221 9.71231 45.8114 9.27826C46.1008 8.84421 46.5059 8.51144 47.0268 8.27995C47.5476 8.04846 48.1505 7.93271 48.8353 7.93271C49.8095 7.93271 50.6052 8.17867 51.2226 8.67059C51.8495 9.15287 52.1968 9.81841 52.2643 10.6672H50.4413C50.4123 10.3007 50.2387 9.98721 49.9204 9.72678C49.6021 9.46635 49.1825 9.33613 48.6617 9.33613C48.189 9.33613 47.8032 9.4567 47.5042 9.69784C47.2052 9.93898 47.0557 10.2862 47.0557 10.7396C47.0557 11.0482 47.1473 11.3038 47.3306 11.5064C47.5235 11.6993 47.7646 11.8536 48.054 11.9694C48.3434 12.0851 48.7388 12.2105 49.2404 12.3455C49.9059 12.5288 50.4461 12.7121 50.8609 12.8953C51.2853 13.0786 51.6421 13.3631 51.9315 13.749C52.2305 14.1251 52.38 14.6315 52.38 15.2681C52.38 15.7793 52.2402 16.2616 51.9604 16.715C51.6904 17.1683 51.2901 17.5348 50.7596 17.8145C50.2387 18.0846 49.6214 18.2197 48.9076 18.2197ZM61.6327 13.937C61.6327 14.2361 61.6134 14.5061 61.5748 14.7473H55.4837C55.5319 15.3839 55.7682 15.8951 56.1926 16.2809C56.617 16.6667 57.1379 16.8596 57.7552 16.8596C58.6426 16.8596 59.2696 16.4883 59.6361 15.7456H61.4157C61.1745 16.4786 60.7357 17.0815 60.0991 17.5541C59.4721 18.0171 58.6908 18.2486 57.7552 18.2486C56.9932 18.2486 56.3084 18.0798 55.7007 17.7422C55.1027 17.395 54.6301 16.9127 54.2828 16.2954C53.9452 15.6684 53.7764 14.945 53.7764 14.1251C53.7764 13.3053 53.9404 12.5867 54.2684 11.9694C54.6059 11.3424 55.0738 10.8601 55.6718 10.5225C56.2794 10.1849 56.9739 10.0161 57.7552 10.0161C58.5076 10.0161 59.1779 10.1801 59.7663 10.5081C60.3547 10.836 60.8128 11.299 61.1408 11.897C61.4687 12.4854 61.6327 13.1654 61.6327 13.937ZM59.911 13.4162C59.9013 12.8085 59.6843 12.3214 59.2599 11.9549C58.8355 11.5884 58.3098 11.4051 57.6829 11.4051C57.1138 11.4051 56.6267 11.5884 56.2216 11.9549C55.8165 12.3118 55.5753 12.7989 55.4982 13.4162H59.911ZM62.7061 14.0962C62.7061 13.2956 62.87 12.5867 63.198 11.9694C63.5356 11.352 63.9889 10.8746 64.558 10.537C65.1367 10.1898 65.7734 10.0161 66.4678 10.0161C67.0948 10.0161 67.6398 10.1415 68.1027 10.3923C68.5754 10.6335 68.9515 10.9373 69.2313 11.3038V10.1464H70.8951V18.1184H69.2313V16.932C68.9515 17.3082 68.5706 17.6216 68.0883 17.8724C67.606 18.1232 67.0562 18.2486 66.4389 18.2486C65.7541 18.2486 65.1271 18.075 64.558 17.7277C63.9889 17.3709 63.5356 16.8789 63.198 16.252C62.87 15.6154 62.7061 14.8968 62.7061 14.0962ZM69.2313 14.1251C69.2313 13.5753 69.1155 13.0979 68.884 12.6928C68.6622 12.2877 68.368 11.979 68.0015 11.7668C67.6349 11.5546 67.2395 11.4485 66.8151 11.4485C66.3907 11.4485 65.9952 11.5546 65.6287 11.7668C65.2621 11.9694 64.9631 12.2732 64.7316 12.6783C64.5098 13.0738 64.3989 13.5464 64.3989 14.0962C64.3989 14.646 64.5098 15.1283 64.7316 15.543C64.9631 15.9578 65.2621 16.2761 65.6287 16.4979C66.0048 16.7101 66.4003 16.8162 66.8151 16.8162C67.2395 16.8162 67.6349 16.7101 68.0015 16.4979C68.368 16.2857 68.6622 15.9771 68.884 15.572C69.1155 15.1572 69.2313 14.6749 69.2313 14.1251ZM74.7109 11.3038C74.952 10.8987 75.2703 10.5852 75.6658 10.3634C76.0709 10.1319 76.5484 10.0161 77.0982 10.0161V11.7234H76.6786C76.0323 11.7234 75.5404 11.8874 75.2028 12.2153C74.8749 12.5433 74.7109 13.1124 74.7109 13.9226V18.1184H73.0615V10.1464H74.7109V11.3038ZM78.0645 14.1251C78.0645 13.3053 78.2285 12.5867 78.5564 11.9694C78.894 11.3424 79.357 10.8601 79.9454 10.5225C80.5337 10.1849 81.2089 10.0161 81.9709 10.0161C82.9355 10.0161 83.7312 10.2476 84.3582 10.7106C84.9948 11.164 85.424 11.815 85.6459 12.6638H83.8663C83.7216 12.2684 83.4901 11.9597 83.1718 11.7379C82.8535 11.516 82.4532 11.4051 81.9709 11.4051C81.2957 11.4051 80.7556 11.6462 80.3505 12.1285C79.955 12.6011 79.7573 13.2667 79.7573 14.1251C79.7573 14.9836 79.955 15.6539 80.3505 16.1362C80.7556 16.6185 81.2957 16.8596 81.9709 16.8596C82.9258 16.8596 83.5576 16.4401 83.8663 15.6009H85.6459C85.4144 16.4111 84.9803 17.0574 84.3437 17.5396C83.7071 18.0123 82.9162 18.2486 81.9709 18.2486C81.2089 18.2486 80.5337 18.0798 79.9454 17.7422C79.357 17.395 78.894 16.9127 78.5564 16.2954C78.2285 15.6684 78.0645 14.945 78.0645 14.1251ZM91.4131 10.0161C92.0207 10.0161 92.5609 10.1464 93.0335 10.4068C93.5158 10.6672 93.892 11.053 94.162 11.5642C94.4418 12.0755 94.5816 12.6928 94.5816 13.4162V18.1184H92.9467V13.6621C92.9467 12.9484 92.7683 12.4034 92.4114 12.0272C92.0545 11.6414 91.5674 11.4485 90.9501 11.4485C90.3328 11.4485 89.8408 11.6414 89.4743 12.0272C89.1174 12.4034 88.939 12.9484 88.939 13.6621V18.1184H87.2896V7.41185H88.939V11.0723C89.2187 10.7347 89.5708 10.4743 89.9952 10.291C90.4292 10.1078 90.9018 10.0161 91.4131 10.0161ZM104.567 10.0161C105.175 10.0161 105.715 10.1464 106.188 10.4068C106.67 10.6672 107.046 11.053 107.316 11.5642C107.596 12.0755 107.736 12.6928 107.736 13.4162V18.1184H106.101V13.6621C106.101 12.9484 105.923 12.4034 105.566 12.0272C105.209 11.6414 104.722 11.4485 104.104 11.4485C103.487 11.4485 102.995 11.6414 102.629 12.0272C102.272 12.4034 102.093 12.9484 102.093 13.6621V18.1184H100.444V7.41185H102.093V11.0723C102.373 10.7347 102.725 10.4743 103.149 10.291C103.583 10.1078 104.056 10.0161 104.567 10.0161ZM117.146 13.937C117.146 14.2361 117.127 14.5061 117.088 14.7473H110.997C111.045 15.3839 111.282 15.8951 111.706 16.2809C112.131 16.6667 112.651 16.8596 113.269 16.8596C114.156 16.8596 114.783 16.4883 115.15 15.7456H116.929C116.688 16.4786 116.249 17.0815 115.613 17.5541C114.986 18.0171 114.204 18.2486 113.269 18.2486C112.507 18.2486 111.822 18.0798 111.214 17.7422C110.616 17.395 110.144 16.9127 109.796 16.2954C109.459 15.6684 109.29 14.945 109.29 14.1251C109.29 13.3053 109.454 12.5867 109.782 11.9694C110.119 11.3424 110.587 10.8601 111.185 10.5225C111.793 10.1849 112.487 10.0161 113.269 10.0161C114.021 10.0161 114.691 10.1801 115.28 10.5081C115.868 10.836 116.326 11.299 116.654 11.897C116.982 12.4854 117.146 13.1654 117.146 13.937ZM115.425 13.4162C115.415 12.8085 115.198 12.3214 114.773 11.9549C114.349 11.5884 113.823 11.4051 113.196 11.4051C112.627 11.4051 112.14 11.5884 111.735 11.9549C111.33 12.3118 111.089 12.7989 111.012 13.4162H115.425ZM120.419 11.3038C120.66 10.8987 120.978 10.5852 121.374 10.3634C121.779 10.1319 122.256 10.0161 122.806 10.0161V11.7234H122.386C121.74 11.7234 121.248 11.8874 120.911 12.2153C120.583 12.5433 120.419 13.1124 120.419 13.9226V18.1184H118.769V10.1464H120.419V11.3038ZM131.629 13.937C131.629 14.2361 131.609 14.5061 131.571 14.7473H125.48C125.528 15.3839 125.764 15.8951 126.189 16.2809C126.613 16.6667 127.134 16.8596 127.751 16.8596C128.639 16.8596 129.266 16.4883 129.632 15.7456H131.412C131.17 16.4786 130.732 17.0815 130.095 17.5541C129.468 18.0171 128.687 18.2486 127.751 18.2486C126.989 18.2486 126.304 18.0798 125.697 17.7422C125.099 17.395 124.626 16.9127 124.279 16.2954C123.941 15.6684 123.772 14.945 123.772 14.1251C123.772 13.3053 123.936 12.5867 124.264 11.9694C124.602 11.3424 125.07 10.8601 125.668 10.5225C126.275 10.1849 126.97 10.0161 127.751 10.0161C128.504 10.0161 129.174 10.1801 129.762 10.5081C130.351 10.836 130.809 11.299 131.137 11.897C131.465 12.4854 131.629 13.1654 131.629 13.937ZM129.907 13.4162C129.897 12.8085 129.68 12.3214 129.256 11.9549C128.831 11.5884 128.306 11.4051 127.679 11.4051C127.11 11.4051 126.623 11.5884 126.218 11.9549C125.812 12.3118 125.571 12.7989 125.494 13.4162H129.907ZM133.917 18.2197C133.618 18.2197 133.368 18.1184 133.165 17.9158C132.962 17.7133 132.861 17.4625 132.861 17.1635C132.861 16.8645 132.962 16.6137 133.165 16.4111C133.368 16.2086 133.618 16.1073 133.917 16.1073C134.207 16.1073 134.453 16.2086 134.655 16.4111C134.858 16.6137 134.959 16.8645 134.959 17.1635C134.959 17.4625 134.858 17.7133 134.655 17.9158C134.453 18.1184 134.207 18.2197 133.917 18.2197ZM137.407 18.2197C137.108 18.2197 136.857 18.1184 136.655 17.9158C136.452 17.7133 136.351 17.4625 136.351 17.1635C136.351 16.8645 136.452 16.6137 136.655 16.4111C136.857 16.2086 137.108 16.1073 137.407 16.1073C137.697 16.1073 137.943 16.2086 138.145 16.4111C138.348 16.6137 138.449 16.8645 138.449 17.1635C138.449 17.4625 138.348 17.7133 138.145 17.9158C137.943 18.1184 137.697 18.2197 137.407 18.2197ZM140.897 18.2197C140.598 18.2197 140.347 18.1184 140.145 17.9158C139.942 17.7133 139.841 17.4625 139.841 17.1635C139.841 16.8645 139.942 16.6137 140.145 16.4111C140.347 16.2086 140.598 16.1073 140.897 16.1073C141.187 16.1073 141.432 16.2086 141.635 16.4111C141.838 16.6137 141.939 16.8645 141.939 17.1635C141.939 17.4625 141.838 17.7133 141.635 17.9158C141.432 18.1184 141.187 18.2197 140.897 18.2197Z" fill="#5C5C5C"/>
<defs>
<clipPath id="clip0_342_1902">
<rect width="25.3352" height="25.3352" fill="white" transform="translate(0.703613 0.0514832)"/>
</clipPath>
</defs>
</svg>
