<svg width="24" height="25" viewBox="0 0 24 25" fill="none" xmlns="http://www.w3.org/2000/svg">
<path fill-rule="evenodd" clip-rule="evenodd" d="M21.4738 6.19491C21.4738 7.02797 20.7923 7.7095 19.9593 7.7095H16.7514C16.9764 7.2586 17.1032 6.74992 17.1032 6.21159C17.1032 5.65997 16.9702 5.13941 16.7345 4.68032H19.9593C20.7923 4.68032 21.4738 5.36185 21.4738 6.19491ZM16.304 19.2938C16.304 20.7072 15.1581 21.8529 13.7447 21.8529C12.3313 21.8529 11.1856 20.7072 11.1856 19.2938C11.1856 17.8805 12.3313 16.7346 13.7447 16.7346C15.1581 16.7346 16.304 17.8804 16.304 19.2938ZM21.4885 19.2769C21.4885 20.11 20.8068 20.7915 19.9738 20.7915H16.7514C16.9764 20.3406 17.1032 19.8319 17.1032 19.2938C17.1032 18.7421 16.9702 18.2216 16.7345 17.7625H19.9738C20.807 17.7625 21.4885 18.444 21.4885 19.2769ZM10.7378 20.7915H4.02508C3.19202 20.7915 2.51049 20.11 2.51049 19.2769C2.51049 18.4439 3.19202 17.7623 4.02508 17.7623H10.7546C10.5191 18.2214 10.3859 18.742 10.3859 19.2936C10.3859 19.8319 10.5127 20.3406 10.7378 20.7915ZM6.88434 12.7226C6.88434 14.1358 8.03021 15.2817 9.44362 15.2817C10.8569 15.2817 12.0027 14.1358 12.0027 12.7226C12.0027 11.3091 10.8569 10.1633 9.44362 10.1633C8.03021 10.1631 6.88434 11.309 6.88434 12.7226ZM2.50879 12.7057C2.50879 13.5388 3.19063 14.2203 4.02338 14.2203H6.44472C6.21965 13.7693 6.09283 13.2674 6.09283 12.7226C6.09283 12.1776 6.22583 11.6504 6.46156 11.1911H4.02338C3.19032 11.1911 2.50879 11.8727 2.50879 12.7057ZM12.4581 14.2203H19.9756C20.8085 14.2203 21.4902 13.5388 21.4902 12.7057C21.4902 11.8725 20.8087 11.191 19.9756 11.191H12.4414C12.677 11.6502 12.8102 12.1774 12.8102 12.7224C12.8102 13.2674 12.6832 13.7693 12.4581 14.2203ZM16.304 6.21159C16.304 7.625 15.1581 8.77072 13.7447 8.77072C12.3313 8.77072 11.1854 7.62516 11.1854 6.21159C11.1854 4.79818 12.3312 3.65247 13.7446 3.65247C15.158 3.65247 16.304 4.79818 16.304 6.21159ZM10.7378 7.7095H4.03079C3.19773 7.7095 2.5162 7.02782 2.5162 6.19491C2.5162 5.36185 3.19773 4.68032 4.03079 4.68032H10.7546C10.5191 5.13941 10.3859 5.65997 10.3859 6.21159C10.3859 6.74992 10.5127 7.2586 10.7378 7.7095Z" fill="white"/>
</svg>
