<svg width="24" height="25" viewBox="0 0 24 25" fill="none" xmlns="http://www.w3.org/2000/svg">
<path fill-rule="evenodd" clip-rule="evenodd" d="M5.32701 3.67992C5.66458 3.34235 6.12242 3.15271 6.5998 3.15271H14.9998C15.4772 3.15271 15.935 3.34235 16.2726 3.67992C16.6102 4.01748 16.7998 4.47532 16.7998 4.95271V11.5791C15.2628 11.7194 13.8236 12.3939 12.7323 13.4852C11.641 14.5765 10.9665 16.0157 10.8262 17.5527H8.9998C8.84067 17.5527 8.68806 17.6159 8.57554 17.7284C8.46302 17.841 8.3998 17.9936 8.3998 18.1527C8.3998 18.3118 8.46302 18.4645 8.57554 18.577C8.68806 18.6895 8.84067 18.7527 8.9998 18.7527H10.8262C10.9452 20.0749 11.4618 21.33 12.3082 22.3527H6.5998C6.12242 22.3527 5.66458 22.1631 5.32701 21.8255C4.98945 21.4879 4.7998 21.0301 4.7998 20.5527V4.95271C4.7998 4.47532 4.98945 4.01748 5.32701 3.67992ZM21.2182 21.9711C22.2309 20.9584 22.7998 19.5849 22.7998 18.1527C22.7998 16.7205 22.2309 15.347 21.2182 14.3343C20.2055 13.3216 18.832 12.7527 17.3998 12.7527C15.9676 12.7527 14.5941 13.3216 13.5814 14.3343C12.5687 15.347 11.9998 16.7205 11.9998 18.1527C11.9998 19.5849 12.5687 20.9584 13.5814 21.9711C14.5941 22.9838 15.9676 23.5527 17.3998 23.5527C18.832 23.5527 20.2055 22.9838 21.2182 21.9711ZM16.9755 15.3284C17.0881 15.2159 17.2407 15.1527 17.3998 15.1527C17.5589 15.1527 17.7115 15.2159 17.8241 15.3284C17.9366 15.441 17.9998 15.5936 17.9998 15.7527V17.5527H19.1998C19.3589 17.5527 19.5115 17.6159 19.6241 17.7284C19.7366 17.841 19.7998 17.9936 19.7998 18.1527C19.7998 18.3118 19.7366 18.4645 19.6241 18.577C19.5115 18.6895 19.3589 18.7527 19.1998 18.7527H17.3998C17.2407 18.7527 17.0881 18.6895 16.9755 18.577C16.863 18.4645 16.7998 18.3118 16.7998 18.1527V15.7527C16.7998 15.5936 16.863 15.441 16.9755 15.3284ZM10.755 4.69171C10.2301 4.69171 9.80457 5.11724 9.80457 5.64215C9.80457 6.16706 10.2301 6.59259 10.755 6.59259C11.2799 6.59259 11.7054 6.16706 11.7054 5.64215C11.7054 5.11724 11.2799 4.69171 10.755 4.69171Z" fill="white"/>
</svg>
