<svg width="24" height="25" viewBox="0 0 24 25" fill="none" xmlns="http://www.w3.org/2000/svg">
<path d="M9 2.25269C8.20435 2.25269 7.44129 2.56876 6.87868 3.13137C6.31607 3.69397 6 4.45704 6 5.25269V8.38019C6.27882 8.47855 6.53552 8.63091 6.75542 8.82854C6.97532 9.02617 7.15411 9.26521 7.28158 9.53198C7.40905 9.79876 7.48269 10.088 7.49829 10.3833C7.51389 10.6785 7.47114 10.974 7.3725 11.2527H8.25C8.84674 11.2527 9.41903 11.4897 9.84099 11.9117C10.2629 12.3337 10.5 12.9059 10.5 13.5027C10.5 14.0994 10.2629 14.6717 9.84099 15.0937C9.41903 15.5156 8.84674 15.7527 8.25 15.7527H7.3725C7.47114 16.0314 7.51389 16.3268 7.49829 16.6221C7.48269 16.9173 7.40905 17.2066 7.28158 17.4734C7.15411 17.7402 6.97532 17.9792 6.75542 18.1768C6.53552 18.3745 6.27882 18.5268 6 18.6252V20.2527C6 21.0483 6.31607 21.8114 6.87868 22.374C7.44129 22.9366 8.20435 23.2527 9 23.2527H15C15.7956 23.2527 16.5587 22.9366 17.1213 22.374C17.6839 21.8114 18 21.0483 18 20.2527V18.6252C17.7212 18.5268 17.4645 18.3745 17.2446 18.1768C17.0247 17.9792 16.8459 17.7402 16.7184 17.4734C16.591 17.2066 16.5173 16.9173 16.5017 16.6221C16.4861 16.3268 16.5289 16.0314 16.6275 15.7527H15.75C15.1533 15.7527 14.581 15.5156 14.159 15.0937C13.7371 14.6717 13.5 14.0994 13.5 13.5027C13.5 12.9059 13.7371 12.3337 14.159 11.9117C14.581 11.4897 15.1533 11.2527 15.75 11.2527H16.6275C16.5289 10.974 16.4861 10.6785 16.5017 10.3833C16.5173 10.088 16.591 9.79876 16.7184 9.53198C16.8459 9.26521 17.0247 9.02617 17.2446 8.82854C17.4645 8.63091 17.7212 8.47855 18 8.38019V5.25269C18 4.45704 17.6839 3.69397 17.1213 3.13137C16.5587 2.56876 15.7956 2.25269 15 2.25269H9ZM15.75 12.7527H19.9395L18.219 11.0337C18.0782 10.8929 17.9991 10.7018 17.9991 10.5027C17.9991 10.3035 18.0782 10.1125 18.219 9.97169C18.3598 9.83086 18.5508 9.75174 18.75 9.75174C18.9492 9.75174 19.1402 9.83086 19.281 9.97169L22.281 12.9717C22.4205 13.1115 22.4992 13.3007 22.5 13.4982V13.5072C22.4988 13.7027 22.4213 13.89 22.284 14.0292L22.2795 14.0337L19.2795 17.0337C19.1387 17.1743 18.9477 17.2532 18.7487 17.2531C18.5497 17.253 18.3589 17.1738 18.2183 17.0329C18.0776 16.8921 17.9987 16.7012 17.9988 16.5022C17.999 16.3031 18.0782 16.1123 18.219 15.9717L19.9395 14.2527H15.75C15.6514 14.2531 15.5537 14.234 15.4625 14.1964C15.3713 14.1589 15.2885 14.1036 15.2188 14.0339C15.1491 13.9642 15.0938 13.8813 15.0563 13.7902C15.0187 13.699 14.9996 13.6013 15 13.5027C15 13.3038 15.079 13.113 15.2197 12.9724C15.3603 12.8317 15.5511 12.7527 15.75 12.7527ZM8.25 14.2527C8.44891 14.2527 8.63968 14.1737 8.78033 14.033C8.92098 13.8924 9 13.7016 9 13.5027C9 13.3038 8.92098 13.113 8.78033 12.9724C8.63968 12.8317 8.44891 12.7527 8.25 12.7527H4.0605L5.781 11.0337C5.85073 10.964 5.90605 10.8812 5.94378 10.7901C5.98152 10.699 6.00095 10.6013 6.00095 10.5027C6.00095 10.4041 5.98152 10.3064 5.94378 10.2153C5.90605 10.1242 5.85073 10.0414 5.781 9.97169C5.71127 9.90195 5.62848 9.84664 5.53737 9.8089C5.44627 9.77116 5.34862 9.75174 5.25 9.75174C5.15138 9.75174 5.05373 9.77116 4.96263 9.8089C4.87152 9.84664 4.78873 9.90195 4.719 9.97169L1.719 12.9717L1.716 12.9762C1.57844 13.1152 1.50089 13.3026 1.5 13.4982V13.5072C1.5009 13.7042 1.57962 13.8929 1.719 14.0322L4.719 17.0322C4.85963 17.173 5.05045 17.2522 5.24947 17.2524C5.44849 17.2525 5.63942 17.1736 5.78025 17.0329C5.92108 16.8923 6.00028 16.7015 6.00042 16.5025C6.00056 16.3034 5.92163 16.1125 5.781 15.9717L4.0605 14.2527H8.25Z" fill="white"/>
</svg>
