<svg width="26" height="26" viewBox="0 0 26 26" fill="none" xmlns="http://www.w3.org/2000/svg">
<path fill-rule="evenodd" clip-rule="evenodd" d="M5.76612 4.05029H9.89991C11.0398 4.05029 11.9668 4.9773 11.9668 6.11719V10.251C11.9668 11.3909 11.0398 12.3179 9.89991 12.3179H5.76612C4.62622 12.3179 3.69922 11.3909 3.69922 10.251V6.11719C3.69922 4.9773 4.62622 4.05029 5.76612 4.05029ZM16.1006 4.05029H20.2344C21.3743 4.05029 22.3013 4.9773 22.3013 6.11719V10.251C22.3013 11.3909 21.3743 12.3179 20.2344 12.3179H16.1006C14.9607 12.3179 14.0337 11.3909 14.0337 10.251V6.11719C14.0337 4.9773 14.9607 4.05029 16.1006 4.05029ZM9.89991 14.3848H5.76612C4.62623 14.3848 3.69922 15.3118 3.69922 16.4517V20.5855C3.69922 21.7254 4.62623 22.6524 5.76612 22.6524H9.89991C11.0398 22.6524 11.9668 21.7254 11.9668 20.5855V16.4517C11.9668 15.3118 11.0398 14.3848 9.89991 14.3848ZM16.1006 14.3848H20.2344C21.3743 14.3848 22.3013 15.3118 22.3013 16.4517V20.5855C22.3013 21.7254 21.3743 22.6524 20.2344 22.6524H16.1006C14.9607 22.6524 14.0337 21.7254 14.0337 20.5855V16.4517C14.0337 15.3118 14.9607 14.3848 16.1006 14.3848Z" fill="url(#paint0_linear_342_1926)"/>
<mask id="mask0_342_1926" style="mask-type:luminance" maskUnits="userSpaceOnUse" x="3" y="4" width="20" height="19">
<path fill-rule="evenodd" clip-rule="evenodd" d="M5.76612 4.05029H9.89991C11.0398 4.05029 11.9668 4.9773 11.9668 6.11719V10.251C11.9668 11.3909 11.0398 12.3179 9.89991 12.3179H5.76612C4.62622 12.3179 3.69922 11.3909 3.69922 10.251V6.11719C3.69922 4.9773 4.62622 4.05029 5.76612 4.05029ZM16.1006 4.05029H20.2344C21.3743 4.05029 22.3013 4.9773 22.3013 6.11719V10.251C22.3013 11.3909 21.3743 12.3179 20.2344 12.3179H16.1006C14.9607 12.3179 14.0337 11.3909 14.0337 10.251V6.11719C14.0337 4.9773 14.9607 4.05029 16.1006 4.05029ZM9.89991 14.3848H5.76612C4.62623 14.3848 3.69922 15.3118 3.69922 16.4517V20.5855C3.69922 21.7254 4.62623 22.6524 5.76612 22.6524H9.89991C11.0398 22.6524 11.9668 21.7254 11.9668 20.5855V16.4517C11.9668 15.3118 11.0398 14.3848 9.89991 14.3848ZM16.1006 14.3848H20.2344C21.3743 14.3848 22.3013 15.3118 22.3013 16.4517V20.5855C22.3013 21.7254 21.3743 22.6524 20.2344 22.6524H16.1006C14.9607 22.6524 14.0337 21.7254 14.0337 20.5855V16.4517C14.0337 15.3118 14.9607 14.3848 16.1006 14.3848Z" fill="white"/>
</mask>
<g mask="url(#mask0_342_1926)">
</g>
<defs>
<linearGradient id="paint0_linear_342_1926" x1="13.0003" y1="4.05029" x2="13.0003" y2="22.6524" gradientUnits="userSpaceOnUse">
<stop stop-color="#EC108C"/>
<stop offset="1" stop-color="#FA920D"/>
</linearGradient>
</defs>
</svg>
