<svg width="287" height="152" viewBox="0 0 287 152" fill="none" xmlns="http://www.w3.org/2000/svg">
<path fill-rule="evenodd" clip-rule="evenodd" d="M264.706 44.7737C273.02 42.8322 279.451 40.0229 281.371 36.4773C289.256 21.9216 288.994 4.31091 272.2 3.37712C268.16 3.47725 264.665 2.54537 261.92 1.81367C257.153 0.542659 254.651 -0.124376 255.499 6.27066C258.898 31.8708 248.096 40.0705 236.614 42.9071H33.474C15.4674 42.9071 0.870117 57.5044 0.870117 75.511C0.870117 93.5176 15.4674 108.115 33.474 108.115H230.524C256.378 111.029 255.739 131.434 255.356 143.649C255.247 147.13 255.159 149.946 255.711 151.502C259.543 141.852 260.964 123.357 259.633 108.115H264.706V44.7737Z" fill="white"/>
</svg>
