<svg width="24" height="25" viewBox="0 0 24 25" fill="none" xmlns="http://www.w3.org/2000/svg">
<path d="M14 21.7527L12 23.7527L10 21.7527H4.995C4.46589 21.7527 3.95846 21.5425 3.58432 21.1684C3.21019 20.7942 3 20.2868 3 19.7577V5.74769C3 4.64569 3.893 3.75269 4.995 3.75269H19.005C20.107 3.75269 21 4.64569 21 5.74769V19.7577C21 20.2868 20.7898 20.7942 20.4157 21.1684C20.0415 21.5425 19.5341 21.7527 19.005 21.7527H14ZM6.357 18.7527H17.847C17.2026 17.8261 16.3435 17.0693 15.3431 16.5468C14.3427 16.0244 13.2306 15.7519 12.102 15.7527C10.9734 15.7519 9.86134 16.0244 8.86091 16.5468C7.86048 17.0693 7.00137 17.8261 6.357 18.7527ZM12 13.7527C12.4596 13.7527 12.9148 13.6622 13.3394 13.4863C13.764 13.3104 14.1499 13.0526 14.4749 12.7276C14.7999 12.4026 15.0577 12.0167 15.2336 11.5921C15.4095 11.1674 15.5 10.7123 15.5 10.2527C15.5 9.79306 15.4095 9.33793 15.2336 8.91329C15.0577 8.48865 14.7999 8.10282 14.4749 7.77781C14.1499 7.45281 13.764 7.195 13.3394 7.01911C12.9148 6.84322 12.4596 6.75269 12 6.75269C11.0717 6.75269 10.1815 7.12143 9.52513 7.77781C8.86875 8.43419 8.5 9.32443 8.5 10.2527C8.5 11.1809 8.86875 12.0712 9.52513 12.7276C10.1815 13.3839 11.0717 13.7527 12 13.7527Z" fill="white"/>
</svg>
