<svg width="24" height="25" viewBox="0 0 24 25" fill="none" xmlns="http://www.w3.org/2000/svg">
<g clip-path="url(#clip0_342_1940)">
<path d="M8.68637 4.75269L11.2934 2.14569C11.4809 1.95822 11.7352 1.85291 12.0004 1.85291C12.2655 1.85291 12.5198 1.95822 12.7074 2.14569L15.3144 4.75269H19.0004C19.2656 4.75269 19.5199 4.85805 19.7075 5.04559C19.895 5.23312 20.0004 5.48748 20.0004 5.75269V9.43869L22.6074 12.0457C22.7948 12.2332 22.9002 12.4875 22.9002 12.7527C22.9002 13.0179 22.7948 13.2722 22.6074 13.4597L20.0004 16.0667V19.7527C20.0004 20.0179 19.895 20.2723 19.7075 20.4598C19.5199 20.6473 19.2656 20.7527 19.0004 20.7527H15.3144L12.7074 23.3597C12.5198 23.5472 12.2655 23.6525 12.0004 23.6525C11.7352 23.6525 11.4809 23.5472 11.2934 23.3597L8.68637 20.7527H5.00037C4.73516 20.7527 4.4808 20.6473 4.29327 20.4598C4.10573 20.2723 4.00037 20.0179 4.00037 19.7527V16.0667L1.39337 13.4597C1.2059 13.2722 1.10059 13.0179 1.10059 12.7527C1.10059 12.4875 1.2059 12.2332 1.39337 12.0457L4.00037 9.43869V5.75269C4.00037 5.48748 4.10573 5.23312 4.29327 5.04559C4.4808 4.85805 4.73516 4.75269 5.00037 4.75269H8.68637ZM12.0004 15.7527C12.796 15.7527 13.5591 15.4366 14.1217 14.874C14.6843 14.3114 15.0004 13.5483 15.0004 12.7527C15.0004 11.957 14.6843 11.194 14.1217 10.6314C13.5591 10.0688 12.796 9.75269 12.0004 9.75269C11.2047 9.75269 10.4417 10.0688 9.87905 10.6314C9.31644 11.194 9.00037 11.957 9.00037 12.7527C9.00037 13.5483 9.31644 14.3114 9.87905 14.874C10.4417 15.4366 11.2047 15.7527 12.0004 15.7527Z" fill="white"/>
</g>
<defs>
<clipPath id="clip0_342_1940">
<rect width="24" height="24" fill="white" transform="translate(0 0.752686)"/>
</clipPath>
</defs>
</svg>
