<svg width="24" height="25" viewBox="0 0 24 25" fill="none" xmlns="http://www.w3.org/2000/svg">
<path d="M12 2.66907L8 7.66907L11 7.66907L11 16.6691L13 16.6691L13 7.66907L16 7.66907L12 2.66907Z" fill="white"/>
<path d="M21.0009 13.67C21.0042 12.4876 20.7728 11.3162 20.3202 10.2238C19.8675 9.13137 19.2026 8.13963 18.3639 7.30603L16.9499 8.72003C18.2719 10.042 19.0009 11.8 19.0009 13.67C19.0009 15.54 18.2719 17.298 16.9499 18.62C15.6279 19.942 13.8699 20.671 11.9999 20.671C10.1299 20.671 8.37194 19.942 7.04994 18.62C5.72794 17.298 4.99894 15.54 4.99894 13.67C4.99894 11.8 5.72794 10.042 7.04994 8.72003L5.63594 7.30603C3.93594 9.00503 2.99894 11.265 2.99894 13.67C2.99894 16.075 3.93594 18.335 5.63594 20.034C7.33494 21.734 9.59494 22.671 11.9999 22.671C14.4049 22.671 16.6649 21.734 18.3639 20.034C19.2026 19.2004 19.8675 18.2087 20.3202 17.1163C20.7728 16.0239 21.0042 14.8525 21.0009 13.67Z" fill="white"/>
</svg>
